<?xml version="1.0" encoding="UTF-8"?>
<svg id="Layer_3" data-name="Layer 3" xmlns="http://www.w3.org/2000/svg" viewBox="0 0 422.42 210.7">
  <defs>
    <style>
      .cls-1 {
        fill: #283b85;
      }

      .cls-2 {
        fill: #6b6c6c;
      }

      .cls-3 {
        fill: #f0ae4f;
      }
    </style>
  </defs>
  <g>
    <path class="cls-1" d="m104.11,144.2c2.68-1.25,4.03-3.31,4.03-6.15,0-2.55-.88-4.5-2.63-5.86-.89-.68-1.92-1.16-3.1-1.45-1.17-.29-2.72-.43-4.66-.43h-20.11v.69c.52.14.88.32,1.09.55.2.22.31.56.31,1v24.67c0,.44-.1.78-.31,1-.2.23-.57.41-1.09.56v.68h20.3c1.92,0,3.52-.17,4.83-.5,1.3-.33,2.44-.88,3.42-1.63,1.95-1.51,2.92-3.59,2.92-6.25,0-3.35-1.67-5.64-5.01-6.88Zm-18.59-9.08h11.38c1.73,0,2.96.26,3.68.78.73.53,1.09,1.39,1.09,2.62s-.39,2.08-1.16,2.65c-.68.5-1.88.75-3.61.75h-11.38v-6.79Zm15.43,18.71c-.9.55-2.37.83-4.42.83h-11.01v-7.94h11.01c2.06,0,3.54.27,4.42.83,1.03.65,1.55,1.7,1.55,3.14s-.52,2.5-1.55,3.14Z"/>
    <path class="cls-1" d="m149.01,137.39c-1.33-2.72-3.39-4.66-6.17-5.85-1.94-.81-4.72-1.22-8.35-1.22h-16.54v.69c.52.14.88.32,1.09.55.2.22.31.56.31,1v24.67c0,.44-.1.78-.31,1-.2.23-.57.41-1.09.56v.68h16.54c2.75,0,4.99-.24,6.77-.71,1.76-.48,3.31-1.27,4.63-2.38,3.14-2.63,4.71-6.46,4.71-11.49,0-2.86-.53-5.36-1.59-7.5Zm-9.21,16.23c-1.3.69-3.26,1.04-5.85,1.04h-8.13v-19.54h8.13c1.97,0,3.55.2,4.74.59,1.18.39,2.2,1.05,3.04,1.98,1.51,1.67,2.26,4.06,2.26,7.2,0,4.33-1.4,7.23-4.2,8.73Z"/>
    <path class="cls-1" d="m167.94,131.55c.22-.23.6-.41,1.14-.54v-.69h-9.71v.69c.55.14.92.32,1.13.55.22.22.32.55.32.98v24.69c0,.44-.1.78-.32,1-.21.23-.59.41-1.13.56v.68h9.71v-.68c-.53-.13-.91-.32-1.13-.55-.22-.24-.33-.57-.33-1.02v-24.69c0-.43.11-.76.32-.99Z"/>
  </g>
  <path class="cls-2" d="m209,154.75c-1.34.99-2.68,1.64-4.01,1.95-1.77.42-3.57.63-5.39.63-2.29,0-4.46-.59-6.52-1.79-2.06-1.19-3.65-2.81-4.77-4.86-1.12-2.05-1.68-4.38-1.68-7,0-3.73,1.11-6.71,3.3-8.93,2.2-2.22,5.14-3.34,8.8-3.34,1.44,0,2.82.2,4.14.59,1.32.4,2.59.99,3.79,1.79l.16,3.62h1.36c.1-2.64.45-4.69,1.06-6.14-.8-.15-1.84-.38-3.11-.67-2.56-.63-4.8-.94-6.71-.94-3.65,0-6.72.61-9.23,1.86-2.5,1.24-4.44,2.99-5.81,5.25-1.36,2.26-2.05,4.82-2.05,7.68s.68,5.43,2.03,7.7c1.36,2.27,3.3,4.05,5.83,5.34,2.53,1.29,5.46,1.93,8.8,1.93,1.62,0,3.24-.2,4.85-.6,1.6-.4,3.2-.99,4.79-1.77.24-.64.51-1.27.79-1.89l-.43-.41Z"/>
  <g>
    <path class="cls-2" d="m240.74,157.98c-.25-.12-.47-.31-.66-.59-.19-.28-.57-1.09-1.14-2.44l-8.52-19.8h-1.14c-.45,1.26-1.29,3.28-2.53,6.06l-4.63,10.48c-.83,1.88-1.64,3.62-2.44,5.23-.26.55-.5.89-.73,1.03-.23.14-.74.23-1.52.25l-.51.02v1.06c1.22-.08,2.64-.12,4.26-.12,1.34,0,2.55.03,3.63.12v-1.06l-1.62-.18c-.57-.07-.93-.16-1.06-.27-.14-.11-.21-.29-.21-.55,0-.4.38-1.51,1.13-3.3l1.14-2.7h9.74l1.84,4.67c.34.85.51,1.38.51,1.58,0,.19-.08.35-.25.47-.11.08-.46.14-1.06.18l-1.67.1v1.06c2.05-.08,3.69-.12,4.93-.12,1.32,0,2.72.03,4.18.12v-1.06c-.87-.05-1.42-.13-1.67-.25Zm-15.92-8.16l4.24-10.11,4.23,10.11h-8.48Z"/>
    <path class="cls-2" d="m267.1,136.73c-1.24-.99-3.21-1.48-5.92-1.48-.53,0-1.3.02-2.32.07-1.55.07-2.96.1-4.22.1-2.16,0-3.93-.03-5.34-.09v1.06h.85c1.11,0,1.81.16,2.1.48.28.33.44,1.21.46,2.66l.05,3.48v8.99c-.07,2.72-.13,4.35-.18,4.89-.06.53-.19.89-.39,1.06-.2.18-.66.27-1.36.27h-1.52v1.06c2.57-.08,4.36-.12,5.37-.12,1.15,0,2.71.03,4.7.12v-1.06h-1.16c-1.13,0-1.79-.2-1.99-.61-.2-.4-.31-2.29-.31-5.67v-9.61c0-1.83.04-3.55.12-5.17,1.29-.42,2.48-.62,3.56-.62,1.92,0,3.36.44,4.33,1.32.97.88,1.45,2.1,1.45,3.67s-.45,2.91-1.36,3.85c-.91.93-2.14,1.41-3.69,1.41-.66,0-1.49-.13-2.48-.38l.34,1.26c1.01.21,1.85.32,2.52.32,1.47,0,2.85-.34,4.15-1.02,1.3-.69,2.3-1.59,3-2.72.71-1.13,1.06-2.3,1.06-3.52,0-1.69-.61-3.02-1.84-4.01Z"/>
    <path class="cls-2" d="m283.02,138.13c.03-.78.15-1.26.35-1.45.2-.19.71-.29,1.51-.29h1.3v-1.06c-1.24.08-2.61.12-4.13.12-1.82,0-3.66-.04-5.53-.12v1.06h1.36c.9,0,1.44.23,1.62.69.18.46.27,2.93.27,7.42v5.71c0,4.33-.11,6.75-.31,7.25-.21.51-.83.76-1.88.76h-1.06v1.06c1.53-.08,3.24-.12,5.14-.12,1.63,0,3.13.03,4.52.12v-1.06h-1.12c-1.04,0-1.65-.23-1.84-.67s-.29-2.85-.29-7.21v-5.81c0-3.07.03-5.21.09-6.41Z"/>
    <path class="cls-2" d="m304.5,135.45c-1.06,0-4.63-.04-10.69-.12.14,1.52.2,2.68.2,3.49l-.03,2h1.06l.24-2.25c.09-.87.27-1.38.55-1.51.28-.13,1.8-.19,4.57-.19h1.71c.08,1.58.12,3.32.12,5.21v9.61c0,2.07-.05,3.77-.16,5.08-.06.57-.2.96-.42,1.15-.23.19-.71.29-1.45.29h-1.41v1.06c1.95-.08,3.62-.12,5.01-.12s3.06.03,5.05.12v-1.06h-1.26c-1.1,0-1.74-.18-1.92-.55-.18-.37-.27-2.33-.27-5.9v-9.59c0-1.86.06-3.64.18-5.32h1.31c1.57,0,2.98.04,4.21.14.42.03.7.12.82.26.12.14.22.59.29,1.35l.17,2.2h1.06c.03-1.76.16-3.59.38-5.49l-9.31.12Z"/>
    <path class="cls-2" d="m341.56,157.98c-.25-.12-.46-.31-.66-.59-.19-.28-.57-1.09-1.15-2.44l-8.52-19.8h-1.14c-.45,1.26-1.29,3.28-2.53,6.06l-4.63,10.48c-.83,1.88-1.64,3.62-2.44,5.23-.25.55-.5.89-.73,1.03-.23.14-.74.23-1.52.25l-.51.02v1.06c1.22-.08,2.64-.12,4.26-.12,1.34,0,2.56.03,3.63.12v-1.06l-1.61-.18c-.57-.07-.93-.16-1.07-.27-.14-.11-.21-.29-.21-.55,0-.4.38-1.51,1.13-3.3l1.14-2.7h9.73l1.85,4.67c.33.85.51,1.38.51,1.58,0,.19-.09.35-.25.47-.12.08-.47.14-1.06.18l-1.67.1v1.06c2.05-.08,3.7-.12,4.93-.12,1.32,0,2.72.03,4.18.12v-1.06c-.87-.05-1.42-.13-1.67-.25Zm-15.91-8.16l4.24-10.11,4.24,10.11h-8.48Z"/>
    <path class="cls-2" d="m368.57,153.1l-1.01,3.96c-.89.23-1.74.4-2.57.48-1.19.11-2.84.17-4.95.17-1.04,0-2.12-.03-3.21-.09l.05-.99-.05-4.74v-10.72c0-2.5.08-3.92.24-4.27s.53-.51,1.13-.51h2.09v-1.06c-2,.08-3.58.12-4.75.12-.87,0-2.65-.04-5.32-.12v1.06h1.84c.75,0,1.21.19,1.37.58.16.39.25,2.26.25,5.63v9.25c0,3.11-.08,4.89-.25,5.33-.16.45-.7.87-1.59,1.26v.89c2.28-.12,3.95-.18,5.03-.18l8.01.13c1.75,0,3.13-.08,4.14-.25.16-1.84.38-3.81.66-5.94h-1.1Z"/>
  </g>
  <g>
    <path class="cls-3" d="m67.07,127.15c0-5.13,0-10.26.01-15.39,7.54-.02,15.09-.04,22.63-.07-7.55,5.15-15.1,10.31-22.64,15.46Z"/>
    <path class="cls-3" d="m56.39,134.47c-9.16,6.27-18.32,12.53-27.48,18.8.01-13.84.03-27.68.04-41.52h27.44c0,7.57,0,15.14,0,22.72Z"/>
    <path class="cls-3" d="m134.83,80.9c-9.15,6.27-18.29,12.53-27.44,18.8v12.06h27.43c0-10.29,0-20.57,0-30.86Z"/>
    <polygon class="cls-3" points="211.17 28.84 183.73 47.31 183.73 111.75 211.17 111.75 211.17 28.84"/>
    <path class="cls-3" d="m172.98,54.83c-9.15,6.26-18.3,12.52-27.45,18.78v38.15h27.44c0-18.98,0-37.95,0-56.92Z"/>
  </g>
</svg>