<?xml version="1.0" encoding="UTF-8"?>
<svg id="Layer_3" data-name="Layer 3" xmlns="http://www.w3.org/2000/svg" viewBox="0 0 484.83 331.01">
  <defs>
    <style>
      .cls-1 {
        fill: #f0ae4f;
      }
    </style>
  </defs>
  <path class="cls-1" d="m101.5,261.51c.01-13.65.02-27.3.03-40.95,20.07-.06,40.14-.12,60.2-.17-20.08,13.71-40.16,27.41-60.24,41.12Z"/>
  <path class="cls-1" d="m73.09,280.99c-24.36,16.67-48.73,33.34-73.09,50.02.04-36.82.07-73.63.11-110.45h73c0,20.14,0,40.29-.01,60.43Z"/>
  <path class="cls-1" d="m281.76,138.48c-24.33,16.67-48.67,33.34-73,50.01v32.08h72.98c0-27.36.01-54.72.02-82.09Z"/>
  <polygon class="cls-1" points="484.83 0 411.83 49.13 411.83 220.56 484.83 220.56 484.83 0"/>
  <path class="cls-1" d="m383.24,69.13c-24.34,16.65-48.67,33.3-73.01,49.95v101.48h73c0-50.48,0-100.95,0-151.43Z"/>
</svg>